<svg id="Capa_1" enable-background="new 0 0 512 512" height="90" viewBox="0 0 512 512" width="512" xmlns="http://www.w3.org/2000/svg"><g><path d="m256 512c-141.385 0-256-114.615-256-256s114.615-256 256-256l40 256.01z" fill="#2fedab"/><path d="m256 0c141.385 0 256 114.615 256 256s-114.615 256-256 256z" fill="#24c990"/><g><path d="m256 203.999 20-45.963-20-44.349-74.668 21.232v193.638c-4.652-1.633-9.649-2.531-14.858-2.531-24.775 0-44.859 20.084-44.859 44.859s20.084 44.859 44.859 44.859 44.859-20.084 44.859-44.859c0-.003 0-.006 0-.01v-154.174z" fill="#ffe477"/><path d="m256 113.687v90.312l74.768-21.261v103.327c-4.652-1.633-9.649-2.531-14.859-2.531-24.775 0-44.859 20.084-44.859 44.859s20.084 44.859 44.859 44.859 44.859-20.084 44.859-44.859v-244.497z" fill="#ffb655"/></g></g></svg>